<?xml version="1.0" encoding="UTF-8" standalone="no"?><!DOCTYPE svg PUBLIC "-//W3C//DTD SVG 1.1//EN" "http://www.w3.org/Graphics/SVG/1.1/DTD/svg11.dtd"><svg width="100%" height="100%" viewBox="0 0 256 256" version="1.1" xmlns="http://www.w3.org/2000/svg" xmlns:xlink="http://www.w3.org/1999/xlink" xml:space="preserve" xmlns:serif="http://www.serif.com/" style="fill-rule:evenodd;clip-rule:evenodd;stroke-linejoin:round;stroke-miterlimit:2;"><g><path d="M213.691,222.66l-171.666,0c-22.399,0 -40.619,-18.22 -40.619,-40.619l0,-108.373c0,-22.396 18.223,-40.619 40.619,-40.619l171.666,0c22.396,0 40.616,18.223 40.616,40.619l0,108.373c0,22.399 -18.22,40.619 -40.616,40.619Zm-171.666,-177.733c-15.848,0 -28.741,12.892 -28.741,28.741l0,108.373c0,15.848 12.892,28.743 28.741,28.743l171.666,0c15.848,0 28.741,-12.895 28.741,-28.743l0,-108.373c0,-15.848 -12.892,-28.741 -28.741,-28.741l-171.666,0Z" style="fill-opacity:0.87;fill-rule:nonzero;"/><path d="M32.44,74.233c30.359,29.584 60.718,59.165 91.078,88.748c5.659,5.513 14.345,-3.153 8.677,-8.677c-30.359,-29.581 -60.718,-59.165 -91.078,-88.745c-5.659,-5.516 -14.345,3.153 -8.677,8.674Z" style="fill-opacity:0.87;fill-rule:nonzero;"/><path d="M132.195,162.982c30.359,-29.581 60.718,-59.165 91.078,-88.745c5.665,-5.522 -3.015,-14.193 -8.677,-8.677c-30.359,29.581 -60.718,59.165 -91.078,88.745c-5.665,5.522 3.015,14.193 8.677,8.677Z" style="fill-opacity:0.87;fill-rule:nonzero;"/><path d="M222.939,183.922c-20.201,-19.159 -40.405,-38.314 -60.606,-57.473c-5.73,-5.432 -14.421,3.229 -8.677,8.677c20.201,19.159 40.405,38.314 60.606,57.473c5.73,5.432 14.421,-3.231 8.677,-8.677Z" style="fill-opacity:0.87;fill-rule:nonzero;"/><path d="M42,192.596c20.201,-19.159 40.405,-38.314 60.606,-57.473c5.741,-5.446 -2.945,-14.112 -8.677,-8.677c-20.201,19.159 -40.405,38.314 -60.606,57.473c-5.741,5.446 2.945,14.115 8.677,8.677Z" style="fill-opacity:0.87;fill-rule:nonzero;"/></g></svg>