<?xml version="1.0" encoding="UTF-8" standalone="no"?><!DOCTYPE svg PUBLIC "-//W3C//DTD SVG 1.1//EN" "http://www.w3.org/Graphics/SVG/1.1/DTD/svg11.dtd"><svg width="100%" height="100%" viewBox="0 0 256 256" version="1.1" xmlns="http://www.w3.org/2000/svg" xmlns:xlink="http://www.w3.org/1999/xlink" xml:space="preserve" xmlns:serif="http://www.serif.com/" style="fill-rule:evenodd;clip-rule:evenodd;stroke-linejoin:round;stroke-miterlimit:2;"><g><path d="M3.025,126.721c-0.008,22.087 5.76,43.648 16.731,62.652l-17.784,64.933l66.457,-17.425c18.31,9.984 38.924,15.247 59.904,15.255l0.053,0c69.087,0 125.329,-56.225 125.36,-125.318c0.011,-33.487 -13.019,-64.973 -36.685,-88.661c-23.671,-23.685 -55.143,-36.738 -88.675,-36.752c-69.101,0 -125.334,56.214 -125.363,125.312m39.573,59.381l-2.481,-3.94c-10.431,-16.585 -15.936,-35.752 -15.93,-55.43c0.025,-57.431 46.764,-104.158 104.237,-104.158c27.833,0.011 53.989,10.861 73.664,30.548c19.673,19.687 30.5,45.859 30.491,73.689c-0.025,57.434 -46.767,104.161 -104.195,104.161l-0.042,0c-18.701,-0.011 -37.039,-5.03 -53.03,-14.522l-3.808,-2.256l-39.438,10.341l10.532,-38.432Zm85.789,66.038c-0.003,0 -0.003,0 0,0" style="fill-opacity:0.87;fill-rule:nonzero;"/><path d="M97.053,74.326c-2.346,-5.215 -4.816,-5.322 -7.047,-5.412c-1.826,-0.079 -3.917,-0.073 -6.002,-0.073c-2.091,0 -5.482,0.784 -8.351,3.917c-2.872,3.136 -10.965,10.712 -10.965,26.122c0,15.413 11.226,30.303 12.788,32.396c1.568,2.088 21.671,34.723 53.505,47.278c26.459,10.434 31.846,8.36 37.587,7.837c5.744,-0.523 18.532,-7.576 21.142,-14.89c2.61,-7.314 2.61,-13.584 1.829,-14.89c-0.784,-1.307 -2.872,-2.091 -6.005,-3.656c-3.133,-1.568 -18.532,-9.144 -21.404,-10.189c-2.872,-1.045 -4.96,-1.565 -7.05,1.571c-2.088,3.133 -8.087,10.186 -9.914,12.274c-1.826,2.093 -3.656,2.355 -6.786,0.787c-3.133,-1.571 -13.221,-4.875 -25.189,-15.545c-9.312,-8.304 -15.598,-18.554 -17.425,-21.69c-1.826,-3.133 -0.194,-4.828 1.374,-6.39c1.408,-1.402 3.133,-3.656 4.701,-5.485c1.562,-1.829 2.085,-3.136 3.128,-5.224c1.045,-2.091 0.523,-3.92 -0.261,-5.488c-0.784,-1.568 -6.87,-17.057 -9.655,-23.25" style="fill-opacity:0.87;fill-rule:nonzero;"/></g></svg>