<?xml version="1.0" encoding="UTF-8" standalone="no"?><!DOCTYPE svg PUBLIC "-//W3C//DTD SVG 1.1//EN" "http://www.w3.org/Graphics/SVG/1.1/DTD/svg11.dtd"><svg width="100%" height="100%" viewBox="0 0 256 256" version="1.1" xmlns="http://www.w3.org/2000/svg" xmlns:xlink="http://www.w3.org/1999/xlink" xml:space="preserve" xmlns:serif="http://www.serif.com/" style="fill-rule:evenodd;clip-rule:evenodd;stroke-linejoin:round;stroke-miterlimit:2;"><g><path d="M127.857,1.407c-69.837,0 -126.45,57.512 -126.45,128.456c0,59.909 40.371,110.236 94.984,124.444c-0.037,-14.845 -0.084,-33.054 -0.112,-38.727c-36.491,8.062 -44.19,-15.722 -44.19,-15.722c-5.966,-15.402 -14.564,-19.499 -14.564,-19.499c-11.903,-8.27 0.896,-8.101 0.896,-8.101c13.17,0.939 20.108,13.732 20.108,13.732c11.698,20.37 30.685,14.48 38.171,11.077c1.177,-8.61 4.575,-14.491 8.329,-17.818c-29.134,-3.369 -59.763,-14.795 -59.763,-65.852c0,-14.547 5.125,-26.434 13.516,-35.766c-1.363,-3.358 -5.853,-16.911 1.27,-35.266c0,0 11.015,-3.58 36.08,13.659c10.464,-2.953 21.685,-4.434 32.832,-4.485c11.147,0.051 22.376,1.531 32.86,4.485c25.037,-17.239 36.035,-13.659 36.035,-13.659c7.14,18.355 2.65,31.908 1.287,35.266c8.41,9.332 13.499,21.218 13.499,35.766c0,51.181 -30.685,62.447 -59.895,65.748c4.704,4.136 8.896,12.243 8.896,24.675c0,9.872 -0.045,32.599 -0.087,49.849c53.466,-14.989 92.747,-64.723 92.747,-123.806c0,-70.944 -56.613,-128.456 -126.45,-128.456Z" style="fill:#fff;fill-opacity:0.87;fill-rule:nonzero;"/></g></svg>