<?xml version="1.0" encoding="UTF-8" standalone="no"?><!DOCTYPE svg PUBLIC "-//W3C//DTD SVG 1.1//EN" "http://www.w3.org/Graphics/SVG/1.1/DTD/svg11.dtd"><svg width="100%" height="100%" viewBox="0 0 288 288" version="1.1" xmlns="http://www.w3.org/2000/svg" xmlns:xlink="http://www.w3.org/1999/xlink" xml:space="preserve" xmlns:serif="http://www.serif.com/" style="fill-rule:evenodd;clip-rule:evenodd;stroke-linejoin:round;stroke-miterlimit:2;"><g id="Camada-1" serif:id="Camada 1"><path id="path4642" d="M144,24.008c-32.587,0 -36.672,0.207 -49.47,0.734c-12.772,0.583 -21.477,2.582 -29.108,5.549c-7.891,3.065 -14.61,7.186 -21.28,13.857c-6.671,6.671 -10.753,13.353 -13.819,21.243c-2.967,7.632 -5.004,16.373 -5.586,29.145c-0.585,12.798 -0.736,16.883 -0.736,49.47c0,32.588 0.15,36.672 0.736,49.47c0.583,12.772 2.619,21.477 5.586,29.109c3.066,7.89 7.149,14.572 13.819,21.243c6.67,6.671 13.389,10.788 21.28,13.855c7.632,2.966 16.337,5.004 29.108,5.587c12.798,0.583 16.883,0.696 49.47,0.696c32.587,0 36.672,-0.188 49.47,-0.696c12.771,-0.583 21.513,-2.621 29.145,-5.587c7.891,-3.067 14.573,-7.185 21.243,-13.855c6.671,-6.671 10.753,-13.353 13.819,-21.243c2.967,-7.632 5.004,-16.338 5.587,-29.109c0.585,-12.798 0.736,-16.881 0.736,-49.47c0,-32.587 -0.15,-36.672 -0.736,-49.47c-0.583,-12.772 -2.62,-21.512 -5.587,-29.145c-3.066,-7.89 -7.148,-14.572 -13.819,-21.243c-6.67,-6.671 -13.353,-10.792 -21.243,-13.857c-7.632,-2.968 -16.374,-4.966 -29.145,-5.549c-12.798,-0.583 -16.883,-0.734 -49.47,-0.734Zm0,21.61c32.038,0 35.825,0.188 48.477,0.696c11.698,0.527 18.081,2.51 22.309,4.153c5.601,2.177 9.584,4.77 13.782,8.968c4.199,4.198 6.792,8.182 8.968,13.782c1.643,4.228 3.619,10.611 4.153,22.308c0.576,12.653 0.698,16.441 0.698,48.478c0,32.039 -0.132,35.827 -0.698,48.478c-0.534,11.699 -2.51,18.044 -4.153,22.273c-2.176,5.6 -4.769,9.618 -8.968,13.818c-4.198,4.198 -8.182,6.791 -13.782,8.968c-4.228,1.637 -10.611,3.585 -22.309,4.117c-12.651,0.583 -16.436,0.696 -48.477,0.696c-32.041,0 -35.827,-0.188 -48.477,-0.696c-11.698,-0.527 -18.044,-2.475 -22.273,-4.117c-5.601,-2.177 -9.621,-4.77 -13.819,-8.968c-4.198,-4.2 -6.791,-8.218 -8.968,-13.818c-1.643,-4.228 -3.582,-10.574 -4.116,-22.273c-0.576,-12.651 -0.698,-16.439 -0.698,-48.478c0,-32.037 0.132,-35.825 0.698,-48.478c0.534,-11.697 2.474,-18.08 4.116,-22.308c2.177,-5.6 4.77,-9.584 8.968,-13.782c4.198,-4.198 8.218,-6.791 13.819,-8.968c4.228,-1.637 10.574,-3.619 22.273,-4.153c12.653,-0.583 16.439,-0.696 48.477,-0.696Zm64.061,19.92c-7.952,0 -14.407,6.454 -14.407,14.407c0,7.952 6.456,14.407 14.407,14.407c7.953,0 14.407,-6.454 14.407,-14.407c0,-7.952 -6.455,-14.407 -14.407,-14.407Zm-64.061,16.832c-34.029,0 -61.598,27.607 -61.598,61.635c0,34.03 27.57,61.598 61.598,61.598c34.029,0 61.635,-27.568 61.635,-61.598c0,-34.028 -27.606,-61.635 -61.635,-61.635Zm0,21.648c22.089,0 39.988,17.899 39.988,39.988c0,22.09 -17.898,39.988 -39.988,39.988c-22.089,0 -39.988,-17.897 -39.988,-39.988c0,-22.088 17.898,-39.988 39.988,-39.988Z" style="fill:#fff;fill-opacity:0.87;fill-rule:nonzero;"/></g></svg>