<?xml version="1.0" encoding="UTF-8" standalone="no"?><!DOCTYPE svg PUBLIC "-//W3C//DTD SVG 1.1//EN" "http://www.w3.org/Graphics/SVG/1.1/DTD/svg11.dtd"><svg width="100%" height="100%" viewBox="0 0 256 256" version="1.1" xmlns="http://www.w3.org/2000/svg" xmlns:xlink="http://www.w3.org/1999/xlink" xml:space="preserve" xmlns:serif="http://www.serif.com/" style="fill-rule:evenodd;clip-rule:evenodd;stroke-linejoin:round;stroke-miterlimit:2;"><g><path d="M5.565,85.454l52.426,0l0,168.628l-52.426,0l0,-168.628Zm26.214,-83.822c16.756,-0 30.373,13.617 30.373,30.401c0,16.767 -13.617,30.385 -30.373,30.385c-16.795,-0 -30.373,-13.617 -30.373,-30.385c0,-16.784 13.578,-30.401 30.373,-30.401" style="fill:#fff;fill-opacity:0.87;fill-rule:nonzero;"/><path d="M90.863,85.454l50.271,0l0,23.059l0.717,0c6.997,-13.263 24.099,-27.235 49.588,-27.235c53.072,0 62.868,34.914 62.868,80.318l0,92.486l-52.387,0l0,-82.004c0,-19.56 -0.34,-44.713 -27.235,-44.713c-27.274,0 -31.435,21.319 -31.435,43.308l0,83.409l-52.387,0l0,-168.628Z" style="fill:#fff;fill-opacity:0.87;fill-rule:nonzero;"/></g></svg>